<mxfile host="app.diagrams.net" modified="2025-04-10T15:00:00.000Z" agent="5.0 (Windows NT 10.0; Win64; x64) AppleWebKit/537.36 (KHTML, like Gecko) Chrome/96.0.4664.110 Safari/537.36" etag="your-etag" version="@DRAWIO-VERSION@">
  <diagram id="physical-components" name="Physical Components">
    <mxGraphModel dx="1422" dy="794" grid="1" gridSize="10" guides="1" tooltips="1" connect="1" arrows="1" fold="1" page="1" pageScale="1" pageWidth="850" pageHeight="1100" math="0" shadow="0">
      <root>
        <mxCell id="0" />
        <mxCell id="1" parent="0" />
        <mxCell id="2" value="" style="rounded=0;whiteSpace=wrap;html=1;fillColor=#f5f5f5;strokeColor=#dddddd;strokeWidth=3;" vertex="1" parent="1">
          <mxGeometry x="50" y="50" width="750" height="450" as="geometry" />
        </mxCell>
        <mxCell id="3" value="&lt;font style=&quot;font-size: 20px;&quot; color=&quot;#333333&quot;&gt;&lt;b&gt;Physical Components - Smart Agriculture&lt;/b&gt;&lt;/font&gt;" style="text;html=1;align=center;verticalAlign=middle;resizable=0;points=[];autosize=1;strokeColor=none;fillColor=none;" vertex="1" parent="1">
          <mxGeometry x="225" y="70" width="400" height="40" as="geometry" />
        </mxCell>
        <mxCell id="4" value="" style="endArrow=none;html=1;rounded=0;strokeWidth=1.5;fontColor=#6c757d;strokeColor=#6c757d;" edge="1" parent="1">
          <mxGeometry width="50" height="50" relative="1" as="geometry">
            <mxPoint x="225" y="110" as="sourcePoint" />
            <mxPoint x="625" y="110" as="targetPoint" />
          </mxGeometry>
        </mxCell>
        <mxCell id="5" value="" style="rounded=1;whiteSpace=wrap;html=1;fillColor=#4dabf7;strokeColor=#339af0;strokeWidth=2;" vertex="1" parent="1">
          <mxGeometry x="100" y="140" width="130" height="60" as="geometry" />
        </mxCell>
        <mxCell id="6" value="&lt;font style=&quot;font-size: 16px;&quot; color=&quot;#ffffff&quot;&gt;&lt;b&gt;Soil Moisture&lt;/b&gt;&lt;/font&gt;" style="text;html=1;strokeColor=none;fillColor=none;align=center;verticalAlign=middle;whiteSpace=wrap;rounded=0;" vertex="1" parent="1">
          <mxGeometry x="135" y="155" width="60" height="30" as="geometry" />
        </mxCell>
        <mxCell id="7" value="" style="rounded=1;whiteSpace=wrap;html=1;fillColor=#ff6b6b;strokeColor=#fa5252;strokeWidth=2;" vertex="1" parent="1">
          <mxGeometry x="270" y="140" width="130" height="60" as="geometry" />
        </mxCell>
        <mxCell id="8" value="&lt;font style=&quot;font-size: 16px;&quot; color=&quot;#ffffff&quot;&gt;&lt;b&gt;Temperature&lt;/b&gt;&lt;/font&gt;" style="text;html=1;strokeColor=none;fillColor=none;align=center;verticalAlign=middle;whiteSpace=wrap;rounded=0;" vertex="1" parent="1">
          <mxGeometry x="305" y="155" width="60" height="30" as="geometry" />
        </mxCell>
        <mxCell id="9" value="" style="rounded=1;whiteSpace=wrap;html=1;fillColor=#51cf66;strokeColor=#40c057;strokeWidth=2;" vertex="1" parent="1">
          <mxGeometry x="440" y="140" width="130" height="60" as="geometry" />
        </mxCell>
        <mxCell id="10" value="&lt;font style=&quot;font-size: 16px;&quot; color=&quot;#ffffff&quot;&gt;&lt;b&gt;Humidity&lt;/b&gt;&lt;/font&gt;" style="text;html=1;strokeColor=none;fillColor=none;align=center;verticalAlign=middle;whiteSpace=wrap;rounded=0;" vertex="1" parent="1">
          <mxGeometry x="475" y="155" width="60" height="30" as="geometry" />
        </mxCell>
        <mxCell id="11" value="" style="rounded=1;whiteSpace=wrap;html=1;fillColor=#fab005;strokeColor=#f59f00;strokeWidth=2;" vertex="1" parent="1">
          <mxGeometry x="610" y="140" width="130" height="60" as="geometry" />
        </mxCell>
        <mxCell id="12" value="&lt;font style=&quot;font-size: 16px;&quot; color=&quot;#ffffff&quot;&gt;&lt;b&gt;Irrigation&lt;/b&gt;&lt;/font&gt;" style="text;html=1;strokeColor=none;fillColor=none;align=center;verticalAlign=middle;whiteSpace=wrap;rounded=0;" vertex="1" parent="1">
          <mxGeometry x="645" y="155" width="60" height="30" as="geometry" />
        </mxCell>
        <mxCell id="13" value="" style="endArrow=classic;html=1;rounded=0;strokeWidth=2;fontColor=#adb5bd;strokeColor=#adb5bd;dashed=1;dashPattern=1 2;" edge="1" parent="1">
          <mxGeometry width="50" height="50" relative="1" as="geometry">
            <mxPoint x="164.5" y="200" as="sourcePoint" />
            <mxPoint x="164.5" y="250" as="targetPoint" />
          </mxGeometry>
        </mxCell>
        <mxCell id="14" value="" style="endArrow=classic;html=1;rounded=0;strokeWidth=2;fontColor=#adb5bd;strokeColor=#adb5bd;dashed=1;dashPattern=1 2;" edge="1" parent="1">
          <mxGeometry width="50" height="50" relative="1" as="geometry">
            <mxPoint x="334.5" y="200" as="sourcePoint" />
            <mxPoint x="334.5" y="250" as="targetPoint" />
          </mxGeometry>
        </mxCell>
        <mxCell id="15" value="" style="endArrow=classic;html=1;rounded=0;strokeWidth=2;fontColor=#adb5bd;strokeColor=#adb5bd;dashed=1;dashPattern=1 2;" edge="1" parent="1">
          <mxGeometry width="50" height="50" relative="1" as="geometry">
            <mxPoint x="504.5" y="200" as="sourcePoint" />
            <mxPoint x="504.5" y="250" as="targetPoint" />
          </mxGeometry>
        </mxCell>
        <mxCell id="16" value="" style="endArrow=classic;html=1;rounded=0;strokeWidth=2;fontColor=#adb5bd;strokeColor=#adb5bd;dashed=1;dashPattern=1 2;" edge="1" parent="1">
          <mxGeometry width="50" height="50" relative="1" as="geometry">
            <mxPoint x="674.5" y="200" as="sourcePoint" />
            <mxPoint x="674.5" y="250" as="targetPoint" />
          </mxGeometry>
        </mxCell>
        <mxCell id="17" value="" style="rounded=1;whiteSpace=wrap;html=1;fillColor=#ffffff;strokeColor=#4dabf7;strokeWidth=2;" vertex="1" parent="1">
          <mxGeometry x="100" y="250" width="130" height="90" as="geometry" />
        </mxCell>
        <mxCell id="18" value="&lt;font style=&quot;font-size: 14px;&quot; color=&quot;#1971c2&quot;&gt;&lt;b&gt;LoRaWAN Sensor&lt;/b&gt;&lt;/font&gt;" style="text;html=1;strokeColor=none;fillColor=none;align=center;verticalAlign=middle;whiteSpace=wrap;rounded=0;" vertex="1" parent="1">
          <mxGeometry x="135" y="260" width="60" height="30" as="geometry" />
        </mxCell>
        <mxCell id="19" value="&lt;font color=&quot;#495057&quot;&gt;Module (5-10 yr&lt;br&gt;battery life)&lt;/font&gt;" style="text;html=1;strokeColor=none;fillColor=none;align=center;verticalAlign=middle;whiteSpace=wrap;rounded=0;" vertex="1" parent="1">
          <mxGeometry x="135" y="290" width="60" height="30" as="geometry" />
        </mxCell>
        <mxCell id="20" value="" style="rounded=1;whiteSpace=wrap;html=1;fillColor=#ffffff;strokeColor=#ff6b6b;strokeWidth=2;" vertex="1" parent="1">
          <mxGeometry x="270" y="250" width="130" height="90" as="geometry" />
        </mxCell>
        <mxCell id="21" value="&lt;font style=&quot;font-size: 14px;&quot; color=&quot;#c92a2a&quot;&gt;&lt;b&gt;Integrated Temp&lt;/b&gt;&lt;/font&gt;" style="text;html=1;strokeColor=none;fillColor=none;align=center;verticalAlign=middle;whiteSpace=wrap;rounded=0;" vertex="1" parent="1">
          <mxGeometry x="305" y="260" width="60" height="30" as="geometry" />
        </mxCell>
        <mxCell id="22" value="&lt;font color=&quot;#495057&quot;&gt;w/ waterproof&lt;br&gt;housing&lt;/font&gt;" style="text;html=1;strokeColor=none;fillColor=none;align=center;verticalAlign=middle;whiteSpace=wrap;rounded=0;" vertex="1" parent="1">
          <mxGeometry x="305" y="290" width="60" height="30" as="geometry" />
        </mxCell>
        <mxCell id="23" value="" style="rounded=1;whiteSpace=wrap;html=1;fillColor=#ffffff;strokeColor=#51cf66;strokeWidth=2;" vertex="1" parent="1">
          <mxGeometry x="440" y="250" width="130" height="90" as="geometry" />
        </mxCell>
        <mxCell id="24" value="&lt;font style=&quot;font-size: 14px;&quot; color=&quot;#2b8a3e&quot;&gt;&lt;b&gt;Weatherproof&lt;/b&gt;&lt;/font&gt;" style="text;html=1;strokeColor=none;fillColor=none;align=center;verticalAlign=middle;whiteSpace=wrap;rounded=0;" vertex="1" parent="1">
          <mxGeometry x="475" y="260" width="60" height="30" as="geometry" />
        </mxCell>
        <mxCell id="25" value="&lt;font color=&quot;#495057&quot;&gt;Relative Humidity&lt;br&gt;Sensor&lt;/font&gt;" style="text;html=1;strokeColor=none;fillColor=none;align=center;verticalAlign=middle;whiteSpace=wrap;rounded=0;" vertex="1" parent="1">
          <mxGeometry x="475" y="290" width="60" height="30" as="geometry" />
        </mxCell>
        <mxCell id="26" value="" style="rounded=1;whiteSpace=wrap;html=1;fillColor=#ffffff;strokeColor=#fab005;strokeWidth=2;" vertex="1" parent="1">
          <mxGeometry x="610" y="250" width="130" height="90" as="geometry" />
        </mxCell>
        <mxCell id="27" value="&lt;font style=&quot;font-size: 14px;&quot; color=&quot;#e67700&quot;&gt;&lt;b&gt;LoRaWAN-Enabled&lt;/b&gt;&lt;/font&gt;" style="text;html=1;strokeColor=none;fillColor=none;align=center;verticalAlign=middle;whiteSpace=wrap;rounded=0;" vertex="1" parent="1">
          <mxGeometry x="645" y="260" width="60" height="30" as="geometry" />
        </mxCell>
        <mxCell id="28" value="&lt;font color=&quot;#495057&quot;&gt;Smart Valve with&lt;br&gt;Solar Power&lt;/font&gt;" style="text;html=1;strokeColor=none;fillColor=none;align=center;verticalAlign=middle;whiteSpace=wrap;rounded=0;" vertex="1" parent="1">
          <mxGeometry x="645" y="290" width="60" height="30" as="geometry" />
        </mxCell>
        <mxCell id="29" value="" style="rounded=1;whiteSpace=wrap;html=1;fillColor=#c5f6fa;strokeColor=#15aabf;strokeWidth=2;" vertex="1" parent="1">
          <mxGeometry x="320" y="390" width="210" height="60" as="geometry" />
        </mxCell>
        <mxCell id="30" value="&lt;font style=&quot;font-size: 16px;&quot; color=&quot;#0c8599&quot;&gt;&lt;b&gt;LoRaWAN Gateway&lt;/b&gt;&lt;/font&gt;" style="text;html=1;strokeColor=none;fillColor=none;align=center;verticalAlign=middle;whiteSpace=wrap;rounded=0;" vertex="1" parent="1">
          <mxGeometry x="395" y="405" width="60" height="30" as="geometry" />
        </mxCell>
        <mxCell id="31" value="" style="endArrow=classic;html=1;rounded=0;strokeWidth=1.5;fontColor=#adb5bd;strokeColor=#adb5bd;dashed=1;entryX=0.25;entryY=0;entryDx=0;entryDy=0;exitX=0.5;exitY=1;exitDx=0;exitDy=0;" edge="1" parent="1" source="17" target="29">
          <mxGeometry width="50" height="50" relative="1" as="geometry">
            <mxPoint x="400" y="430" as="sourcePoint" />
            <mxPoint x="450" y="380" as="targetPoint" />
            <Array as="points">
              <mxPoint x="165" y="370" />
              <mxPoint x="373" y="370" />
            </Array>
          </mxGeometry>
        </mxCell>
        <mxCell id="32" value="" style="endArrow=classic;html=1;rounded=0;strokeWidth=1.5;fontColor=#adb5bd;strokeColor=#adb5bd;dashed=1;entryX=0.38;entryY=0;entryDx=0;entryDy=0;exitX=0.5;exitY=1;exitDx=0;exitDy=0;entryPerimeter=0;" edge="1" parent="1" source="20" target="29">
          <mxGeometry width="50" height="50" relative="1" as="geometry">
            <mxPoint x="175" y="350" as="sourcePoint" />
            <mxPoint x="382.5" y="400" as="targetPoint" />
            <Array as="points">
              <mxPoint x="335" y="370" />
              <mxPoint x="400" y="370" />
            </Array>
          </mxGeometry>
        </mxCell>
        <mxCell id="33" value="" style="endArrow=classic;html=1;rounded=0;strokeWidth=1.5;fontColor=#adb5bd;strokeColor=#adb5bd;dashed=1;entryX=0.62;entryY=0;entryDx=0;entryDy=0;exitX=0.5;exitY=1;exitDx=0;exitDy=0;entryPerimeter=0;" edge="1" parent="1" source="23" target="29">
          <mxGeometry width="50" height="50" relative="1" as="geometry">
            <mxPoint x="345" y="350" as="sourcePoint" />
            <mxPoint x="409.79999999999995" y="400" as="targetPoint" />
            <Array as="points">
              <mxPoint x="505" y="370" />
              <mxPoint x="450" y="370" />
            </Array>
          </mxGeometry>
        </mxCell>
        <mxCell id="34" value="" style="endArrow=classic;html=1;rounded=0;strokeWidth=1.5;fontColor=#adb5bd;strokeColor=#adb5bd;dashed=1;entryX=0.75;entryY=0;entryDx=0;entryDy=0;exitX=0.5;exitY=1;exitDx=0;exitDy=0;" edge="1" parent="1" source="26" target="29">
          <mxGeometry width="50" height="50" relative="1" as="geometry">
            <mxPoint x="515" y="350" as="sourcePoint" />
            <mxPoint x="460.20000000000005" y="400" as="targetPoint" />
            <Array as="points">
              <mxPoint x="675" y="370" />
              <mxPoint x="478" y="370" />
            </Array>
          </mxGeometry>
        </mxCell>
        <mxCell id="35" value="" style="ellipse;whiteSpace=wrap;html=1;aspect=fixed;fillColor=#adb5bd;strokeColor=none;" vertex="1" parent="1">
          <mxGeometry x="161" y="340" width="8" height="8" as="geometry" />
        </mxCell>
        <mxCell id="36" value="" style="ellipse;whiteSpace=wrap;html=1;aspect=fixed;fillColor=#adb5bd;strokeColor=none;" vertex="1" parent="1">
          <mxGeometry x="331" y="340" width="8" height="8" as="geometry" />
        </mxCell>
        <mxCell id="37" value="" style="ellipse;whiteSpace=wrap;html=1;aspect=fixed;fillColor=#adb5bd;strokeColor=none;" vertex="1" parent="1">
          <mxGeometry x="501" y="340" width="8" height="8" as="geometry" />
        </mxCell>
        <mxCell id="38" value="" style="ellipse;whiteSpace=wrap;html=1;aspect=fixed;fillColor=#adb5bd;strokeColor=none;" vertex="1" parent="1">
          <mxGeometry x="671" y="340" width="8" height="8" as="geometry" />
        </mxCell>
        <mxCell id="39" value="" style="ellipse;whiteSpace=wrap;html=1;aspect=fixed;fillColor=#adb5bd;strokeColor=none;" vertex="1" parent="1">
          <mxGeometry x="373" y="370" width="8" height="8" as="geometry" />
        </mxCell>
        <mxCell id="40" value="" style="ellipse;whiteSpace=wrap;html=1;aspect=fixed;fillColor=#adb5bd;strokeColor=none;" vertex="1" parent="1">
          <mxGeometry x="400" y="370" width="8" height="8" as="geometry" />
        </mxCell>
        <mxCell id="41" value="" style="ellipse;whiteSpace=wrap;html=1;aspect=fixed;fillColor=#adb5bd;strokeColor=none;" vertex="1" parent="1">
          <mxGeometry x="450" y="370" width="8" height="8" as="geometry" />
        </mxCell>
        <mxCell id="42" value="" style="ellipse;whiteSpace=wrap;html=1;aspect=fixed;fillColor=#adb5bd;strokeColor=none;" vertex="1" parent="1">
          <mxGeometry x="477" y="370" width="8" height="8" as="geometry" />
        </mxCell>
      </root>
    </mxGraphModel>
  </diagram>
</mxfile>